<svg xmlns="http://www.w3.org/2000/svg" viewBox="0 0 743.59 75.94"><defs><style>.cls-1{fill:#fff;}</style></defs><title>Asset 2</title><g id="Layer_2" data-name="Layer 2"><g id="Layer_1-2" data-name="Layer 1"><path class="cls-1" d="M8.9,0H68.16q4.86,0,8,5.67a9.5,9.5,0,0,1,.58,2.7v2.12c0,3-1.91,5.58-5.72,7.62a9.33,9.33,0,0,1-3.5.74H19.06v9.69h37.5q7.15,0,9.64,5.67a7.49,7.49,0,0,1,.74,3v1.32q0,5.78-6.78,8.53A7.8,7.8,0,0,1,58,47.4h-39v9.69H66.52q8.36,0,10.27,8.1v2.54c0,2.94-1.82,5.42-5.46,7.47a6.5,6.5,0,0,1-2.86.74h-60q-4.82,0-7.89-5.82A7.78,7.78,0,0,1,0,67.42V8.84C0,5,2.26,2.15,6.78.32A8.15,8.15,0,0,1,8.9,0Z"/><path class="cls-1" d="M101.83,0h30.55q13.41,0,25.53,10.59,7.26,7.53,9.37,13.77a34.71,34.71,0,0,1,2.44,11.49v4.08q0,12.87-11.17,24.94-8.37,7.42-16.21,9.59a39.14,39.14,0,0,1-9.21,1.48H101.4q-4.82,0-7.89-5.82a7.78,7.78,0,0,1-.58-2.7V8.84c0-3.84,2.26-6.69,6.78-8.52A8.15,8.15,0,0,1,101.83,0ZM112,18.85V57.09h16.9a23.57,23.57,0,0,0,17.26-7.47q4.5-5.4,4.51-11.07V37.23q0-8.47-9.38-14.83a25.56,25.56,0,0,0-13.45-3.55Z"/><path class="cls-1" d="M195,0h1.43q4.88,0,8.11,5.4a9.06,9.06,0,0,1,.9,4.19V66.83q0,6.19-7.31,9a7.56,7.56,0,0,1-1.38.16H194.6q-5,0-8.1-5.82a7.16,7.16,0,0,1-.64-2.7V8.84c0-3.84,2.33-6.69,7-8.52A8.38,8.38,0,0,1,195,0Z"/><path class="cls-1" d="M230.49,0h59.26q4.88,0,8.05,5.67a9.24,9.24,0,0,1,.59,2.7v2.12c0,3-1.91,5.58-5.72,7.62a9.33,9.33,0,0,1-3.5.74H269.52V67.1q0,5.88-6.93,8.68l-1.54.16h-2.12q-4.6,0-7.73-5.66a9.45,9.45,0,0,1-.74-3.45v-48H231.29q-6.73,0-9.37-6.72a9.56,9.56,0,0,1-.32-2V8.84c0-3.84,2.26-6.69,6.78-8.52A8.14,8.14,0,0,1,230.49,0Z"/><path class="cls-1" d="M341,0h23.67a31.39,31.39,0,0,1,22.61,9.11q4.08,5.19,4.08,9.11v39.5q0,5.84-7.42,12.08a34.57,34.57,0,0,1-19.75,6.14H342a32.45,32.45,0,0,1-22-7.89q-5.44-5.44-5.45-11.07V19q0-9.37,12.82-16A37.14,37.14,0,0,1,341,0Zm-8,18.8V57.14h39.93V18.8Z"/><path class="cls-1" d="M416.36,0h45.22q9.69,0,17.85,9.11,4.81,6.93,4.82,13v3.12q0,9.27-9.22,17.37-5.61,3.6-8.95,4.19v.1q11.76,10.44,15.47,14.51a10.35,10.35,0,0,1,1.64,5.24q0,6-6.67,9a9.48,9.48,0,0,1-2,.31h-2.12q-3.7,0-9.8-6.56-2.11-1.75-24-22H426.52V66.83q0,6.19-7.14,9a6.84,6.84,0,0,1-1.33.16h-2.12q-4.81,0-7.89-5.82a7.78,7.78,0,0,1-.58-2.7V8.84c0-3.84,2.26-6.69,6.78-8.52A8.15,8.15,0,0,1,416.36,0Zm10.16,18.85V28.7h38.66V18.85Z"/><path class="cls-1" d="M538.1,0h1.64q5.88,0,9.48,9.37,27.16,53.55,28,55.66v2.86c0,3.22-2.12,5.79-6.36,7.74a10.36,10.36,0,0,1-2.22.31h-1.38q-5.93,0-9.58-9.69-18.71-37-19-37.18Q517.76,71.13,516.6,72.82c-2.09,2.08-4.24,3.12-6.47,3.12h-1.32q-4.81,0-7.94-5.82a10.53,10.53,0,0,1-.48-2.7V66.25q0-2.11,5.4-12.23L531.32,3.6Q534.34,0,538.1,0Z"/><path class="cls-1" d="M668.78,0h1.64q5.88,0,9.48,9.37,27.17,53.55,28,55.66v2.86c0,3.22-2.12,5.79-6.36,7.74a10.28,10.28,0,0,1-2.22.31H697.9q-5.92,0-9.58-9.69-18.71-37-19-37.18-20.93,42.06-22.08,43.75c-2.09,2.08-4.24,3.12-6.47,3.12h-1.32q-4.82,0-7.94-5.82a10.53,10.53,0,0,1-.48-2.7V66.25q0-2.11,5.4-12.23L662,3.6Q665,0,668.78,0Z"/><path class="cls-1" d="M733.16,0h1.43q4.88,0,8.11,5.4a9.06,9.06,0,0,1,.89,4.19V66.83q0,6.19-7.3,9a7.56,7.56,0,0,1-1.38.16h-2.17q-5,0-8.1-5.82a7.16,7.16,0,0,1-.64-2.7V8.84c0-3.84,2.33-6.69,7-8.52A8.38,8.38,0,0,1,733.16,0Z"/></g></g></svg>